<svg width="265" height="231" viewBox="0 0 265 231" fill="none" xmlns="http://www.w3.org/2000/svg">
<path fill-rule="evenodd" clip-rule="evenodd" d="M0.609572 3.55916C0.711197 1.56485 2.35782 -5.72198e-06 4.35472 0L87.4546 0.000236321L87.4546 3.67508C87.4546 0.00023632 87.456 0.000236607 87.4574 0.000237179L87.4604 0.000240326L87.4671 0.000254917L87.4838 0.000325871C87.4963 0.000396252 87.5114 0.000517559 87.5293 0.00072155C87.5649 0.00112896 87.6112 0.00186739 87.6676 0.00319061C87.7803 0.00583592 87.9335 0.0108261 88.1227 0.0202171C88.5005 0.0389703 89.0251 0.0754386 89.6593 0.146528C90.9194 0.287769 92.6562 0.570499 94.5548 1.14417C97.0169 1.88814 99.9999 3.20223 102.501 5.53452C104.854 3.22386 107.689 1.90727 110.048 1.15874C111.881 0.577411 113.562 0.291365 114.782 0.148536C115.396 0.0766045 115.906 0.0396458 116.273 0.0206062C116.458 0.0110707 116.607 0.00598354 116.718 0.0032773C116.773 0.00192375 116.819 0.00116358 116.854 0.000741863C116.872 0.000531006 116.887 0.000404835 116.9 0.00033102L116.917 0.000256062L116.924 0.000240898L116.927 0.000237465C116.928 0.000236607 116.93 0.00023632 116.93 3.75024C116.93 0.00023632 116.93 0.000236321 116.93 0.000236321H130.009C179.157 0.000236321 227.555 43.0183 227.555 113.1C227.555 119.218 227.22 125.17 226.563 130.939C242.28 127.103 255.097 120.82 261.757 117.148C263.631 116.116 265.052 117.452 263.618 119.04C255.154 128.417 230.933 144.714 205.655 147.675C189.073 149.617 175.156 146.299 165.74 142.709C166.609 138.729 167.058 134.637 167.058 130.5C167.058 129.434 167.028 128.371 166.969 127.312C184.508 135.178 202.772 135.401 218.807 132.572C219.631 126.331 220.055 119.833 220.055 113.1C220.055 46.6816 174.552 7.50024 130.009 7.50024H116.942L116.933 7.50037C116.926 7.50049 116.915 7.5007 116.901 7.50104C116.855 7.50217 116.774 7.50476 116.661 7.51058C116.435 7.52226 116.089 7.54674 115.654 7.59767C114.775 7.70057 113.582 7.90599 112.316 8.30758C109.718 9.13203 107.326 10.6015 106.153 13.1715C104.798 16.1378 100.587 16.246 99.1066 13.3053C97.7881 10.6859 95.1837 9.16913 92.3854 8.32358C91.0287 7.91361 89.7577 7.70452 88.8239 7.59986C88.3612 7.54799 87.9923 7.52298 87.7509 7.511C87.6304 7.50502 87.5426 7.50232 87.4916 7.50113L87.4783 7.50083L87.4687 7.50063L87.4583 7.50045C87.4517 7.50034 87.4469 7.50027 87.444 7.50024L87.4415 7.50021L87.4408 7.5002L7.94687 7.50001C7.88501 9.10631 7.81208 11.2059 7.74328 13.695C7.5765 19.7293 7.43429 28.0421 7.53193 37.1599C7.72904 55.5657 8.9058 76.6816 12.5996 89.1606C16.138 101.114 26.9574 113.021 37.4681 122.2C37.667 122.374 37.8656 122.547 38.0639 122.718C37.7119 125.283 37.5325 127.882 37.5325 130.5C37.5325 131.421 37.5547 132.341 37.5989 133.257C34.5315 134.548 29.9485 136.616 23.1365 139.777C23.6989 160.685 31.6786 181.225 46.7595 196.703C62.3493 212.703 85.7315 223.5 116.93 223.5C148.134 223.5 173.823 212.382 191.73 193.209C201.565 182.678 209.134 169.627 213.963 154.485C216.852 153.828 219.704 153.021 222.497 152.096C217.494 170.169 208.894 185.818 197.211 198.328C177.748 219.168 150.001 231 116.93 231C83.8983 231 58.5164 219.516 41.3878 201.937C24.2994 184.399 15.629 161.001 15.6046 137.5C15.6029 135.863 16.5975 134.547 17.862 133.958C24.0822 131.061 28.6914 128.954 32.0929 127.462C21.5393 118.18 9.53767 105.241 5.40808 91.2894C1.37622 77.6684 0.228406 55.5469 0.0323628 37.2402C-0.06657 28.0017 0.0775032 19.5894 0.246146 13.4878C0.330499 10.4359 0.421076 7.95929 0.490687 6.24322C0.525496 5.38513 0.55507 4.717 0.576014 4.26199C0.586486 4.03447 0.594801 3.86022 0.600535 3.74213C0.603402 3.68308 0.605625 3.63806 0.607148 3.60745L0.609509 3.5604C0.609546 3.55966 0.609572 3.55916 4.35471 3.75L0.609572 3.55916ZM116.944 7.50021C116.946 7.50018 116.946 7.50019 116.944 7.5002L116.944 7.50021ZM150.258 116.778C145.877 101.302 134.191 88.8952 119.161 83.5179C120.754 85.7725 122.176 88.2879 123.418 90.9542C125.835 96.1422 127.76 102.262 129.074 109.005C133.637 109.961 137.832 111.158 141.545 112.56C144.779 113.782 147.725 115.188 150.258 116.778ZM106.158 81.516V106.451C111.357 106.583 116.378 106.99 121.119 107.638C119.959 102.565 118.427 98.0022 116.619 94.1208C113.409 87.2272 109.703 83.1794 106.158 81.516ZM98.6575 106.451C93.4579 106.583 88.4367 106.99 83.6956 107.638C84.8564 102.565 86.3878 98.0022 88.1956 94.1208C91.4062 87.2272 95.1124 83.1794 98.6575 81.516V106.451ZM98.6575 113.953V146.747C92.853 146.591 87.3393 146.076 82.269 145.27C81.6098 140.57 81.2513 135.562 81.2513 130.35C81.2513 125.138 81.6098 120.13 82.269 115.43C87.3393 114.624 92.853 114.109 98.6575 113.953ZM106.158 113.953C110.663 114.074 114.994 114.411 119.078 114.933C124.802 115.465 128.897 116.218 134.138 117.992C135.817 118.484 137.405 119.014 138.895 119.577C140.864 120.32 142.625 121.108 144.17 121.924C144.338 121.996 144.508 122.068 144.68 122.142C144.764 122.178 144.848 122.214 144.933 122.25L144.923 122.333C146.639 123.292 148.063 124.286 149.182 125.286C151.426 127.289 152.133 129.008 152.133 130.35C152.133 131.692 151.426 133.411 149.182 135.415C146.941 137.416 143.486 139.389 138.895 141.123C136.313 142.099 133.432 142.975 130.303 143.731C130.802 139.43 131.064 134.948 131.064 130.35C131.064 128.43 131.018 126.531 130.928 124.656C128.585 124.146 126.096 123.735 123.351 123.442C123.491 125.697 123.564 128.003 123.564 130.35C123.564 135.562 123.205 140.57 122.546 145.27C117.476 146.076 111.962 146.591 106.158 146.747V113.953ZM98.6575 154.249C96.8809 154.204 95.1252 154.127 93.3943 154.019C81.4152 153.051 74.7783 151.915 65.0824 148.645L65.0325 148.777C64.4337 148.57 63.846 148.357 63.27 148.14C60.0362 146.918 57.0896 145.512 54.5573 143.922C55.7361 148.086 57.4438 152.028 59.6032 155.671C57.2973 156.16 55.1695 157.612 53.9209 160.027L53.7143 160.426C50.2418 154.816 47.7118 148.561 46.3451 141.883C45.5828 138.158 45.1825 134.301 45.1825 130.35C45.1825 110.35 55.4423 92.7469 70.9857 82.5159C71.0337 82.4843 71.0817 82.4528 71.1298 82.4213C80.1197 76.5427 90.8645 73.125 102.408 73.125C134.012 73.125 159.633 98.7455 159.633 130.35C159.633 161.948 134.023 187.564 102.428 187.575H102.387C90.528 187.571 79.5121 183.959 70.3772 177.778L71.2309 177.337C73.4714 176.178 74.883 174.263 75.4657 172.151C78.6327 174.196 82.0471 175.892 85.654 177.182C84.0608 174.928 82.6386 172.412 81.3968 169.746C80.0195 166.789 78.8018 163.529 77.7659 160.024C80.3799 160.519 83.1158 160.915 86.0231 161.204C86.691 163.113 87.4177 164.909 88.1956 166.579C91.4062 173.473 95.1124 177.521 98.6575 179.184V154.249ZM106.158 179.184V154.249C111.357 154.117 116.378 153.71 121.119 153.062C119.959 158.135 118.427 162.698 116.619 166.579C113.409 173.473 109.703 177.521 106.158 179.184ZM81.3968 90.9542C82.6386 88.2879 84.0608 85.7725 85.6541 83.5179C70.6241 88.8952 58.938 101.302 54.5573 116.778C57.0896 115.188 60.0362 113.782 63.27 112.56C66.983 111.158 71.1783 109.961 75.7412 109.005C77.0553 102.262 78.9805 96.1422 81.3968 90.9542ZM150.258 143.922C145.877 159.398 134.191 171.805 119.161 177.182C120.754 174.928 122.176 172.412 123.418 169.746C125.834 164.558 127.76 158.438 129.074 151.695C133.637 150.739 137.832 149.542 141.545 148.14C144.779 146.918 147.725 145.512 150.258 143.922ZM65.92 119.577C68.5024 118.601 71.3828 117.725 74.5116 116.969C74.0134 121.27 73.7513 125.752 73.7513 130.35C73.7513 134.948 74.0134 139.43 74.5116 143.731C71.3828 142.975 68.5024 142.099 65.92 141.123C61.3292 139.389 57.8737 137.416 55.6326 135.415C53.3888 133.411 52.6825 131.692 52.6825 130.35C52.6825 129.008 53.3888 127.289 55.6326 125.286C57.8737 123.284 61.3292 121.311 65.92 119.577ZM135.737 66.8968C135.452 67.4169 134.705 67.4169 134.421 66.8966L130.307 59.3719C130.238 59.246 130.134 59.1425 130.008 59.0737L122.483 54.958C121.963 54.6735 121.963 53.9265 122.483 53.642L130.008 49.5263C130.134 49.4575 130.238 49.354 130.307 49.2281L134.421 41.7034C134.705 41.1831 135.452 41.1831 135.737 41.7033L139.853 49.2282C139.921 49.354 140.025 49.4575 140.151 49.5263L147.676 53.642C148.197 53.9265 148.197 54.6735 147.676 54.958L140.151 59.0737C140.025 59.1425 139.921 59.246 139.853 59.3718L135.737 66.8968ZM152.61 178.481L154.65 174.75L156.689 178.481L160.419 180.519L156.689 182.559L154.65 186.29L152.61 182.559L148.88 180.519L152.61 178.481ZM54.2081 70.6212C54.5436 69.9724 55.4715 69.9724 55.807 70.6212L57.5088 73.9126C57.5944 74.0782 57.7293 74.2131 57.8949 74.2987L61.1863 76.0006C61.8352 76.336 61.8352 77.264 61.1863 77.5995L57.8949 79.3013C57.7293 79.3869 57.5944 79.5218 57.5088 79.6874L55.807 82.9788C55.4715 83.6277 54.5436 83.6277 54.2081 82.9788L52.5062 79.6874C52.4206 79.5218 52.2857 79.3869 52.1201 79.3013L48.8287 77.5995C48.1799 77.264 48.1799 76.336 48.8287 76.0006L52.1201 74.2987C52.2857 74.2131 52.4206 74.0782 52.5062 73.9126L54.2081 70.6212ZM65.454 160.846C65.1185 160.197 64.1906 160.197 63.8551 160.846L62.1533 164.138C62.0676 164.303 61.9327 164.438 61.7672 164.524L58.4757 166.226C57.8269 166.561 57.8269 167.489 58.4757 167.824L61.7672 169.526C61.9327 169.612 62.0676 169.747 62.1533 169.912L63.8551 173.204C64.1906 173.853 65.1185 173.853 65.454 173.204L67.1558 169.912C67.2414 169.747 67.3764 169.612 67.5419 169.526L70.8334 167.824C71.4822 167.489 71.4822 166.561 70.8334 166.226L67.5419 164.524C67.3764 164.438 67.2414 164.303 67.1558 164.138L65.454 160.846ZM199.163 111.215C199.275 110.999 199.584 110.999 199.696 111.215L200.664 113.087C200.692 113.142 200.737 113.187 200.792 113.216L202.664 114.184C202.88 114.295 202.88 114.605 202.664 114.716L200.792 115.684C200.737 115.713 200.692 115.758 200.664 115.813L199.696 117.685C199.584 117.901 199.275 117.901 199.163 117.685L198.195 115.813C198.167 115.758 198.122 115.713 198.067 115.684L196.195 114.716C195.979 114.605 195.979 114.295 196.195 114.184L198.067 113.216C198.122 113.187 198.167 113.142 198.195 113.087L199.163 111.215Z" fill="black"/>
</svg>
